<?xml version="1.0" encoding="UTF-8" standalone="no"?>
<!DOCTYPE svg PUBLIC "-//W3C//DTD SVG 1.1//EN" "http://www.w3.org/Graphics/SVG/1.1/DTD/svg11.dtd">
<svg width="100%" height="100%" viewBox="0 0 945 120" version="1.1" xmlns="http://www.w3.org/2000/svg" xmlns:xlink="http://www.w3.org/1999/xlink" xml:space="preserve" xmlns:serif="http://www.serif.com/" style="fill-rule:evenodd;clip-rule:evenodd;stroke-linejoin:round;stroke-miterlimit:2;">
    <g transform="matrix(1,0,0,1,-196,-220)">
        <g transform="matrix(1,0,0,1,0,19.4293)">
            <g opacity="0.75">
                <g id="stargroup-4" transform="matrix(0.584094,0,0,0.584094,-549.321,-194.672)">
                    <g transform="matrix(0.47125,-0.151565,0.151565,0.47125,1108.88,634.118)">
                        <circle cx="1452.66" cy="612.933" r="10.592" style="fill:white;"/>
                    </g>
                    <g transform="matrix(0.495023,0,0,0.495023,721.266,401.042)">
                        <circle cx="1452.66" cy="612.933" r="10.592" style="fill:white;"/>
                    </g>
                    <g transform="matrix(0.387654,0,0,0.387654,1092.65,470.99)">
                        <circle cx="1452.66" cy="612.933" r="10.592" style="fill:white;"/>
                    </g>
                    <g transform="matrix(0.470309,0,0,0.470309,598.065,437.264)">
                        <circle cx="1452.66" cy="612.933" r="10.592" style="fill:white;"/>
                    </g>
                    <g transform="matrix(0.204125,0,0,0.204125,1707.49,568.491)">
                        <circle cx="1452.66" cy="612.933" r="10.592" style="fill:white;"/>
                    </g>
                    <g transform="matrix(0.256995,0,0,0.256995,1214.45,549.114)">
                        <circle cx="1452.66" cy="612.933" r="10.592" style="fill:white;"/>
                    </g>
                    <g transform="matrix(0.0987254,0,0,0.0987254,1346,618.769)">
                        <circle cx="1452.66" cy="612.933" r="10.592" style="fill:white;"/>
                    </g>
                    <g transform="matrix(0.0987254,0,0,0.0987254,1672.75,646.284)">
                        <circle cx="1452.66" cy="612.933" r="10.592" style="fill:white;"/>
                    </g>
                    <g transform="matrix(0.475616,-0.127441,0.127441,0.475616,1214.56,606.027)">
                        <path d="M1515.85,604.999L1517.64,610.044L1522.69,611.832L1517.64,613.621L1515.85,618.666L1514.07,613.621L1509.02,611.832L1514.07,610.044L1515.85,604.999Z" style="fill:white;"/>
                    </g>
                    <g transform="matrix(0.475616,-0.127441,0.127441,0.475616,730.456,595.626)">
                        <path d="M1515.85,604.999L1517.64,610.044L1522.69,611.832L1517.64,613.621L1515.85,618.666L1514.07,613.621L1509.02,611.832L1514.07,610.044L1515.85,604.999Z" style="fill:white;"/>
                    </g>
                    <g transform="matrix(0.465989,0.406827,-0.406827,0.465989,1029.96,-197.613)">
                        <path d="M1515.85,604.999L1517.64,610.044L1522.69,611.832L1517.64,613.621L1515.85,618.666L1514.07,613.621L1509.02,611.832L1514.07,610.044L1515.85,604.999Z" style="fill:white;"/>
                    </g>
                    <g transform="matrix(0.465989,0.406827,-0.406827,0.465989,1219.8,-195.584)">
                        <path d="M1515.85,604.999L1517.64,610.044L1522.69,611.832L1517.64,613.621L1515.85,618.666L1514.07,613.621L1509.02,611.832L1514.07,610.044L1515.85,604.999Z" style="fill:white;"/>
                    </g>
                    <g transform="matrix(0.539748,0.144625,-0.144625,0.539748,1318.11,150.612)">
                        <path d="M1527.75,605.635L1531.82,609.706L1527.75,613.778L1523.67,609.706L1527.75,605.635Z" style="fill:white;"/>
                    </g>
                    <g transform="matrix(0.539748,0.144625,-0.144625,0.539748,1193.45,152.114)">
                        <path d="M1527.75,605.635L1531.82,609.706L1527.75,613.778L1523.67,609.706L1527.75,605.635Z" style="fill:white;"/>
                    </g>
                    <g transform="matrix(0.229439,-0.82164,0.82164,0.229439,529.216,1810.71)">
                        <path d="M1527.75,605.635L1531.82,609.706L1527.75,613.778L1523.67,609.706L1527.75,605.635Z" style="fill:white;"/>
                    </g>
                    <g transform="matrix(0.738783,-0.426537,0.426537,0.738783,-36.6794,905.729)">
                        <path d="M1527.75,605.635L1531.82,609.706L1527.75,613.778L1523.67,609.706L1527.75,605.635Z" style="fill:white;"/>
                    </g>
                    <g transform="matrix(0.222585,1.09143,-1.09143,0.222585,1775.8,-1113.22)">
                        <path d="M1527.75,605.635L1531.82,609.706L1527.75,613.778L1523.67,609.706L1527.75,605.635Z" style="fill:white;"/>
                    </g>
                    <g transform="matrix(0.556946,0.964659,-0.964659,0.556946,1442.88,-1115.88)">
                        <path d="M1527.75,605.635L1531.82,609.706L1527.75,613.778L1523.67,609.706L1527.75,605.635Z" style="fill:white;"/>
                    </g>
                    <g transform="matrix(-0.805556,-0.215848,0.215848,-0.805556,3067.86,1514.15)">
                        <path d="M1527.75,605.635L1531.82,609.706L1527.75,613.778L1523.67,609.706L1527.75,605.635Z" style="fill:white;"/>
                    </g>
                    <g transform="matrix(-0.805556,-0.215848,0.215848,-0.805556,2720.48,1512.19)">
                        <path d="M1527.75,605.635L1531.82,609.706L1527.75,613.778L1523.67,609.706L1527.75,605.635Z" style="fill:white;"/>
                    </g>
                    <g transform="matrix(0.695338,0.15915,-0.15915,0.695338,770.194,34.3268)">
                        <path d="M1515.85,604.999L1517.64,610.044L1522.69,611.832L1517.64,613.621L1515.85,618.666L1514.07,613.621L1509.02,611.832L1514.07,610.044L1515.85,604.999Z" style="fill:white;"/>
                    </g>
                    <g transform="matrix(0.695338,0.15915,-0.15915,0.695338,357.833,37.2307)">
                        <path d="M1515.85,604.999L1517.64,610.044L1522.69,611.832L1517.64,613.621L1515.85,618.666L1514.07,613.621L1509.02,611.832L1514.07,610.044L1515.85,604.999Z" style="fill:white;"/>
                    </g>
                    <g transform="matrix(-0.778863,1.01307,-1.01307,-0.778863,3640.3,-362.703)">
                        <path d="M1515.85,604.999L1517.64,610.044L1522.69,611.832L1517.64,613.621L1515.85,618.666L1514.07,613.621L1509.02,611.832L1514.07,610.044L1515.85,604.999Z" style="fill:white;"/>
                    </g>
                    <g transform="matrix(0.434759,1.62254,-1.62254,0.434759,2123.72,-2025.05)">
                        <path d="M1515.85,604.999L1517.64,610.044L1522.69,611.832L1517.64,613.621L1515.85,618.666L1514.07,613.621L1509.02,611.832L1514.07,610.044L1515.85,604.999Z" style="fill:white;"/>
                    </g>
                </g>
                <g id="stargroup-41" serif:id="stargroup-4" transform="matrix(-0.584094,0,0,0.584094,1866.31,-192.869)">
                    <g transform="matrix(0.47125,-0.151565,0.151565,0.47125,1108.88,634.118)">
                        <circle cx="1452.66" cy="612.933" r="10.592" style="fill:white;"/>
                    </g>
                    <g transform="matrix(0.495023,0,0,0.495023,691.734,402.966)">
                        <circle cx="1452.66" cy="612.933" r="10.592" style="fill:white;"/>
                    </g>
                    <g transform="matrix(0.387654,0,0,0.387654,1092.65,470.99)">
                        <circle cx="1452.66" cy="612.933" r="10.592" style="fill:white;"/>
                    </g>
                    <g transform="matrix(0.470309,0,0,0.470309,569.539,464.136)">
                        <circle cx="1452.66" cy="612.933" r="10.592" style="fill:white;"/>
                    </g>
                    <g transform="matrix(0.256995,0,0,0.256995,1631.25,535.526)">
                        <circle cx="1452.66" cy="612.933" r="10.592" style="fill:white;"/>
                    </g>
                    <g transform="matrix(0.256995,0,0,0.256995,1214.45,549.114)">
                        <circle cx="1452.66" cy="612.933" r="10.592" style="fill:white;"/>
                    </g>
                    <g transform="matrix(0.0987254,0,0,0.0987254,1359.48,630.928)">
                        <circle cx="1452.66" cy="612.933" r="10.592" style="fill:white;"/>
                    </g>
                    <g transform="matrix(0.0987254,0,0,0.0987254,1672.75,646.284)">
                        <circle cx="1452.66" cy="612.933" r="10.592" style="fill:white;"/>
                    </g>
                    <g transform="matrix(0.475616,-0.127441,0.127441,0.475616,1214.56,606.027)">
                        <path d="M1515.85,604.999L1517.64,610.044L1522.69,611.832L1517.64,613.621L1515.85,618.666L1514.07,613.621L1509.02,611.832L1514.07,610.044L1515.85,604.999Z" style="fill:white;"/>
                    </g>
                    <g transform="matrix(0.475616,-0.127441,0.127441,0.475616,730.456,595.626)">
                        <path d="M1515.85,604.999L1517.64,610.044L1522.69,611.832L1517.64,613.621L1515.85,618.666L1514.07,613.621L1509.02,611.832L1514.07,610.044L1515.85,604.999Z" style="fill:white;"/>
                    </g>
                    <g transform="matrix(0.465989,0.406827,-0.406827,0.465989,1029.96,-197.613)">
                        <path d="M1515.85,604.999L1517.64,610.044L1522.69,611.832L1517.64,613.621L1515.85,618.666L1514.07,613.621L1509.02,611.832L1514.07,610.044L1515.85,604.999Z" style="fill:white;"/>
                    </g>
                    <g transform="matrix(0.465989,0.406827,-0.406827,0.465989,1219.8,-195.584)">
                        <path d="M1515.85,604.999L1517.64,610.044L1522.69,611.832L1517.64,613.621L1515.85,618.666L1514.07,613.621L1509.02,611.832L1514.07,610.044L1515.85,604.999Z" style="fill:white;"/>
                    </g>
                    <g transform="matrix(0.539748,0.144625,-0.144625,0.539748,1318.11,150.612)">
                        <path d="M1527.75,605.635L1531.82,609.706L1527.75,613.778L1523.67,609.706L1527.75,605.635Z" style="fill:white;"/>
                    </g>
                    <g transform="matrix(0.539748,0.144625,-0.144625,0.539748,1193.45,152.114)">
                        <path d="M1527.75,605.635L1531.82,609.706L1527.75,613.778L1523.67,609.706L1527.75,605.635Z" style="fill:white;"/>
                    </g>
                    <g transform="matrix(0.229439,-0.82164,0.82164,0.229439,514.764,1826.68)">
                        <path d="M1527.75,605.635L1531.82,609.706L1527.75,613.778L1523.67,609.706L1527.75,605.635Z" style="fill:white;"/>
                    </g>
                    <g transform="matrix(0.738783,-0.426537,0.426537,0.738783,-51.6268,932.283)">
                        <path d="M1527.75,605.635L1531.82,609.706L1527.75,613.778L1523.67,609.706L1527.75,605.635Z" style="fill:white;"/>
                    </g>
                    <g transform="matrix(0.222585,1.09143,-1.09143,0.222585,1766.52,-1103.63)">
                        <path d="M1527.75,605.635L1531.82,609.706L1527.75,613.778L1523.67,609.706L1527.75,605.635Z" style="fill:white;"/>
                    </g>
                    <g transform="matrix(0.556946,0.964659,-0.964659,0.556946,1442.88,-1115.88)">
                        <path d="M1527.75,605.635L1531.82,609.706L1527.75,613.778L1523.67,609.706L1527.75,605.635Z" style="fill:white;"/>
                    </g>
                    <g transform="matrix(-0.805556,-0.215848,0.215848,-0.805556,3067.86,1514.15)">
                        <path d="M1527.75,605.635L1531.82,609.706L1527.75,613.778L1523.67,609.706L1527.75,605.635Z" style="fill:white;"/>
                    </g>
                    <g transform="matrix(-0.805556,-0.215848,0.215848,-0.805556,2720.48,1512.19)">
                        <path d="M1527.75,605.635L1531.82,609.706L1527.75,613.778L1523.67,609.706L1527.75,605.635Z" style="fill:white;"/>
                    </g>
                    <g transform="matrix(0.695338,0.15915,-0.15915,0.695338,770.194,34.3268)">
                        <path d="M1515.85,604.999L1517.64,610.044L1522.69,611.832L1517.64,613.621L1515.85,618.666L1514.07,613.621L1509.02,611.832L1514.07,610.044L1515.85,604.999Z" style="fill:white;"/>
                    </g>
                    <g transform="matrix(0.695338,0.15915,-0.15915,0.695338,324.482,45.6072)">
                        <path d="M1515.85,604.999L1517.64,610.044L1522.69,611.832L1517.64,613.621L1515.85,618.666L1514.07,613.621L1509.02,611.832L1514.07,610.044L1515.85,604.999Z" style="fill:white;"/>
                    </g>
                    <g transform="matrix(-0.778863,1.01307,-1.01307,-0.778863,3640.3,-362.703)">
                        <path d="M1515.85,604.999L1517.64,610.044L1522.69,611.832L1517.64,613.621L1515.85,618.666L1514.07,613.621L1509.02,611.832L1514.07,610.044L1515.85,604.999Z" style="fill:white;"/>
                    </g>
                    <g transform="matrix(0.330736,1.23432,-1.23432,0.330736,2040.52,-1374.86)">
                        <path d="M1515.85,604.999L1517.64,610.044L1522.69,611.832L1517.64,613.621L1515.85,618.666L1514.07,613.621L1509.02,611.832L1514.07,610.044L1515.85,604.999Z" style="fill:white;"/>
                    </g>
                </g>
                <g id="stargroup-42" serif:id="stargroup-4" transform="matrix(0.584094,0,0,-0.584094,-60.396,712.325)">
                    <g transform="matrix(0.47125,-0.151565,0.151565,0.47125,1108.88,634.118)">
                        <circle cx="1452.66" cy="612.933" r="10.592" style="fill:white;"/>
                    </g>
                    <g transform="matrix(0.495023,0,0,0.495023,721.266,401.042)">
                        <circle cx="1452.66" cy="612.933" r="10.592" style="fill:white;"/>
                    </g>
                    <g transform="matrix(0.387654,0,0,0.387654,1092.65,470.99)">
                        <circle cx="1452.66" cy="612.933" r="10.592" style="fill:white;"/>
                    </g>
                    <g transform="matrix(0.470309,0,0,0.470309,597.303,401.127)">
                        <circle cx="1452.66" cy="612.933" r="10.592" style="fill:white;"/>
                    </g>
                    <g transform="matrix(0.256995,0,0,0.256995,1631.25,535.526)">
                        <circle cx="1452.66" cy="612.933" r="10.592" style="fill:white;"/>
                    </g>
                    <g transform="matrix(0.256995,0,0,0.256995,1214.45,549.114)">
                        <circle cx="1452.66" cy="612.933" r="10.592" style="fill:white;"/>
                    </g>
                    <g transform="matrix(0.0987254,0,0,0.0987254,1346,618.769)">
                        <circle cx="1452.66" cy="612.933" r="10.592" style="fill:white;"/>
                    </g>
                    <g transform="matrix(0.0987254,0,0,0.0987254,1672.75,646.284)">
                        <circle cx="1452.66" cy="612.933" r="10.592" style="fill:white;"/>
                    </g>
                    <g transform="matrix(0.475616,-0.127441,0.127441,0.475616,1214.56,606.027)">
                        <path d="M1515.85,604.999L1517.64,610.044L1522.69,611.832L1517.64,613.621L1515.85,618.666L1514.07,613.621L1509.02,611.832L1514.07,610.044L1515.85,604.999Z" style="fill:white;"/>
                    </g>
                    <g transform="matrix(0.475616,-0.127441,0.127441,0.475616,730.456,595.626)">
                        <path d="M1515.85,604.999L1517.64,610.044L1522.69,611.832L1517.64,613.621L1515.85,618.666L1514.07,613.621L1509.02,611.832L1514.07,610.044L1515.85,604.999Z" style="fill:white;"/>
                    </g>
                    <g transform="matrix(0.465989,0.406827,-0.406827,0.465989,1029.96,-197.613)">
                        <path d="M1515.85,604.999L1517.64,610.044L1522.69,611.832L1517.64,613.621L1515.85,618.666L1514.07,613.621L1509.02,611.832L1514.07,610.044L1515.85,604.999Z" style="fill:white;"/>
                    </g>
                    <g transform="matrix(0.465989,0.406827,-0.406827,0.465989,1219.8,-195.584)">
                        <path d="M1515.85,604.999L1517.64,610.044L1522.69,611.832L1517.64,613.621L1515.85,618.666L1514.07,613.621L1509.02,611.832L1514.07,610.044L1515.85,604.999Z" style="fill:white;"/>
                    </g>
                    <g transform="matrix(0.539748,0.144625,-0.144625,0.539748,1318.11,150.612)">
                        <path d="M1527.75,605.635L1531.82,609.706L1527.75,613.778L1523.67,609.706L1527.75,605.635Z" style="fill:white;"/>
                    </g>
                    <g transform="matrix(0.539748,0.144625,-0.144625,0.539748,1193.45,152.114)">
                        <path d="M1527.75,605.635L1531.82,609.706L1527.75,613.778L1523.67,609.706L1527.75,605.635Z" style="fill:white;"/>
                    </g>
                    <g transform="matrix(0.229439,-0.82164,0.82164,0.229439,529.216,1810.71)">
                        <path d="M1527.75,605.635L1531.82,609.706L1527.75,613.778L1523.67,609.706L1527.75,605.635Z" style="fill:white;"/>
                    </g>
                    <g transform="matrix(0.738783,-0.426537,0.426537,0.738783,-36.6794,905.729)">
                        <path d="M1527.75,605.635L1531.82,609.706L1527.75,613.778L1523.67,609.706L1527.75,605.635Z" style="fill:white;"/>
                    </g>
                    <g transform="matrix(0.222585,1.09143,-1.09143,0.222585,1775.8,-1113.22)">
                        <path d="M1527.75,605.635L1531.82,609.706L1527.75,613.778L1523.67,609.706L1527.75,605.635Z" style="fill:white;"/>
                    </g>
                    <g transform="matrix(0.556946,0.964659,-0.964659,0.556946,1442.88,-1115.88)">
                        <path d="M1527.75,605.635L1531.82,609.706L1527.75,613.778L1523.67,609.706L1527.75,605.635Z" style="fill:white;"/>
                    </g>
                    <g transform="matrix(-0.805556,-0.215848,0.215848,-0.805556,3067.86,1514.15)">
                        <path d="M1527.75,605.635L1531.82,609.706L1527.75,613.778L1523.67,609.706L1527.75,605.635Z" style="fill:white;"/>
                    </g>
                    <g transform="matrix(-0.805556,-0.215848,0.215848,-0.805556,2720.48,1512.19)">
                        <path d="M1527.75,605.635L1531.82,609.706L1527.75,613.778L1523.67,609.706L1527.75,605.635Z" style="fill:white;"/>
                    </g>
                    <g transform="matrix(0.695338,0.15915,-0.15915,0.695338,770.194,34.3268)">
                        <path d="M1515.85,604.999L1517.64,610.044L1522.69,611.832L1517.64,613.621L1515.85,618.666L1514.07,613.621L1509.02,611.832L1514.07,610.044L1515.85,604.999Z" style="fill:white;"/>
                    </g>
                    <g transform="matrix(0.695338,0.15915,-0.15915,0.695338,357.833,37.2307)">
                        <path d="M1515.85,604.999L1517.64,610.044L1522.69,611.832L1517.64,613.621L1515.85,618.666L1514.07,613.621L1509.02,611.832L1514.07,610.044L1515.85,604.999Z" style="fill:white;"/>
                    </g>
                    <g transform="matrix(-0.778863,1.01307,-1.01307,-0.778863,3640.3,-362.703)">
                        <path d="M1515.85,604.999L1517.64,610.044L1522.69,611.832L1517.64,613.621L1515.85,618.666L1514.07,613.621L1509.02,611.832L1514.07,610.044L1515.85,604.999Z" style="fill:white;"/>
                    </g>
                    <g transform="matrix(0.330736,1.23432,-1.23432,0.330736,2040.52,-1374.86)">
                        <path d="M1515.85,604.999L1517.64,610.044L1522.69,611.832L1517.64,613.621L1515.85,618.666L1514.07,613.621L1509.02,611.832L1514.07,610.044L1515.85,604.999Z" style="fill:white;"/>
                    </g>
                </g>
                <g id="stargroup-43" serif:id="stargroup-4" transform="matrix(-0.584094,0,0,-0.584094,1400.41,718.071)">
                    <g transform="matrix(0.47125,-0.151565,0.151565,0.47125,1104.52,629.165)">
                        <circle cx="1452.66" cy="612.933" r="10.592" style="fill:white;"/>
                    </g>
                    <g transform="matrix(0.495023,0,0,0.495023,691.734,402.966)">
                        <circle cx="1452.66" cy="612.933" r="10.592" style="fill:white;"/>
                    </g>
                    <g transform="matrix(0.387654,0,0,0.387654,1092.65,470.99)">
                        <circle cx="1452.66" cy="612.933" r="10.592" style="fill:white;"/>
                    </g>
                    <g transform="matrix(0.470309,0,0,0.470309,585.387,398.395)">
                        <circle cx="1452.66" cy="612.933" r="10.592" style="fill:white;"/>
                    </g>
                    <g transform="matrix(0.256995,0,0,0.256995,1624.03,526.748)">
                        <circle cx="1452.66" cy="612.933" r="10.592" style="fill:white;"/>
                    </g>
                    <g transform="matrix(0.256995,0,0,0.256995,1214.45,549.114)">
                        <circle cx="1452.66" cy="612.933" r="10.592" style="fill:white;"/>
                    </g>
                    <g transform="matrix(0.0987254,0,0,0.0987254,1359.48,630.928)">
                        <circle cx="1452.66" cy="612.933" r="10.592" style="fill:white;"/>
                    </g>
                    <g transform="matrix(0.0987254,0,0,0.0987254,1712.06,645.076)">
                        <circle cx="1452.66" cy="612.933" r="10.592" style="fill:white;"/>
                    </g>
                    <g transform="matrix(2.15302,-0.576899,0.576899,2.15302,-1608.35,263.176)">
                        <path d="M1515.85,604.999L1517.64,610.044L1522.69,611.832L1517.64,613.621L1515.85,618.666L1514.07,613.621L1509.02,611.832L1514.07,610.044L1515.85,604.999Z" style="fill:white;"/>
                    </g>
                    <g transform="matrix(0.475616,-0.127441,0.127441,0.475616,730.456,595.626)">
                        <path d="M1515.85,604.999L1517.64,610.044L1522.69,611.832L1517.64,613.621L1515.85,618.666L1514.07,613.621L1509.02,611.832L1514.07,610.044L1515.85,604.999Z" style="fill:white;"/>
                    </g>
                    <g transform="matrix(0.465989,0.406827,-0.406827,0.465989,1029.96,-197.613)">
                        <path d="M1515.85,604.999L1517.64,610.044L1522.69,611.832L1517.64,613.621L1515.85,618.666L1514.07,613.621L1509.02,611.832L1514.07,610.044L1515.85,604.999Z" style="fill:white;"/>
                    </g>
                    <g transform="matrix(0.465989,0.406827,-0.406827,0.465989,1219.8,-195.584)">
                        <path d="M1515.85,604.999L1517.64,610.044L1522.69,611.832L1517.64,613.621L1515.85,618.666L1514.07,613.621L1509.02,611.832L1514.07,610.044L1515.85,604.999Z" style="fill:white;"/>
                    </g>
                    <g transform="matrix(0.539748,0.144625,-0.144625,0.539748,1318.11,150.612)">
                        <path d="M1527.75,605.635L1531.82,609.706L1527.75,613.778L1523.67,609.706L1527.75,605.635Z" style="fill:white;"/>
                    </g>
                    <g transform="matrix(0.863805,-0.35178,0.35178,0.863805,427.21,701.524)">
                        <path d="M1527.75,605.635L1531.82,609.706L1527.75,613.778L1523.67,609.706L1527.75,605.635Z" style="fill:white;"/>
                    </g>
                    <g transform="matrix(0.229439,-0.82164,0.82164,0.229439,535.526,1806.29)">
                        <path d="M1527.75,605.635L1531.82,609.706L1527.75,613.778L1523.67,609.706L1527.75,605.635Z" style="fill:white;"/>
                    </g>
                    <g transform="matrix(0.738783,-0.426537,0.426537,0.738783,-35.6776,890.048)">
                        <path d="M1527.75,605.635L1531.82,609.706L1527.75,613.778L1523.67,609.706L1527.75,605.635Z" style="fill:white;"/>
                    </g>
                    <g transform="matrix(0.222585,1.09143,-1.09143,0.222585,1766.52,-1103.63)">
                        <path d="M1527.75,605.635L1531.82,609.706L1527.75,613.778L1523.67,609.706L1527.75,605.635Z" style="fill:white;"/>
                    </g>
                    <g transform="matrix(0.556946,0.964659,-0.964659,0.556946,1472.19,-1115.13)">
                        <path d="M1527.75,605.635L1531.82,609.706L1527.75,613.778L1523.67,609.706L1527.75,605.635Z" style="fill:white;"/>
                    </g>
                    <g transform="matrix(-1.18609,-0.317811,0.317811,-1.18609,3603.17,1905.63)">
                        <path d="M1527.75,605.635L1531.82,609.706L1527.75,613.778L1523.67,609.706L1527.75,605.635Z" style="fill:white;"/>
                    </g>
                    <g transform="matrix(-0.805556,-0.215848,0.215848,-0.805556,2720.48,1512.19)">
                        <path d="M1527.75,605.635L1531.82,609.706L1527.75,613.778L1523.67,609.706L1527.75,605.635Z" style="fill:white;"/>
                    </g>
                    <g transform="matrix(0.695338,0.15915,-0.15915,0.695338,816.702,34.5158)">
                        <path d="M1515.85,604.999L1517.64,610.044L1522.69,611.832L1517.64,613.621L1515.85,618.666L1514.07,613.621L1509.02,611.832L1514.07,610.044L1515.85,604.999Z" style="fill:white;"/>
                    </g>
                    <g transform="matrix(0.695338,0.15915,-0.15915,0.695338,344.732,26.0479)">
                        <path d="M1515.85,604.999L1517.64,610.044L1522.69,611.832L1517.64,613.621L1515.85,618.666L1514.07,613.621L1509.02,611.832L1514.07,610.044L1515.85,604.999Z" style="fill:white;"/>
                    </g>
                    <g transform="matrix(-1.44444,0.786296,-0.786296,-1.44444,4599.47,386.526)">
                        <path d="M1515.85,604.999L1517.64,610.044L1522.69,611.832L1517.64,613.621L1515.85,618.666L1514.07,613.621L1509.02,611.832L1514.07,610.044L1515.85,604.999Z" style="fill:white;"/>
                    </g>
                    <g transform="matrix(-0.101548,1.71504,-1.71504,-0.101548,3033.65,-1841.24)">
                        <path d="M1515.85,604.999L1517.64,610.044L1522.69,611.832L1517.64,613.621L1515.85,618.666L1514.07,613.621L1509.02,611.832L1514.07,610.044L1515.85,604.999Z" style="fill:white;"/>
                    </g>
                </g>
            </g>
        </g>
    </g>
</svg>
