<?xml version="1.0" encoding="UTF-8" standalone="no"?>
<!DOCTYPE svg PUBLIC "-//W3C//DTD SVG 1.1//EN" "http://www.w3.org/Graphics/SVG/1.1/DTD/svg11.dtd">
<svg width="100%" height="100%" viewBox="0 0 75 75" version="1.1" xmlns="http://www.w3.org/2000/svg" xmlns:xlink="http://www.w3.org/1999/xlink" xml:space="preserve" xmlns:serif="http://www.serif.com/" style="fill-rule:evenodd;clip-rule:evenodd;stroke-linejoin:round;stroke-miterlimit:2;">
    <g transform="matrix(1,0,0,1,-149,-281)">
        <g transform="matrix(1,0,0,1,0,19.4293)">
            <g id="sparkle-l">
                <g id="sparkle" transform="matrix(0.20375,0,0,0.20375,81.3551,148.324)">
                    <path d="M554.707,591.112L574.384,681.604L664.876,701.282C682.924,705.206 695.797,721.179 695.797,739.649C695.797,758.119 682.924,774.092 664.876,778.016L574.384,797.693L554.707,888.186C550.782,906.234 534.809,919.107 516.339,919.107C497.869,919.107 481.897,906.234 477.972,888.186L458.295,797.693L367.803,778.016C349.754,774.092 336.882,758.119 336.882,739.649C336.882,721.179 349.754,705.206 367.803,701.282L458.295,681.604L477.972,591.112C481.897,573.064 497.869,560.191 516.339,560.191C534.809,560.191 550.782,573.064 554.707,591.112Z" style="fill:rgb(48,48,48);"/>
                </g>
                <g id="sparkle1" serif:id="sparkle" transform="matrix(0.20375,0,0,0.20375,81.3551,148.324)">
                    <path d="M530.727,596.327L553.756,702.232L659.662,725.261C666.43,726.733 671.257,732.723 671.257,739.649C671.257,746.575 666.43,752.565 659.662,754.037L553.756,777.066L530.727,882.971C529.255,889.739 523.266,894.567 516.339,894.567C509.413,894.567 503.423,889.739 501.952,882.971L478.923,777.066L373.017,754.037C366.249,752.565 361.421,746.575 361.421,739.649C361.421,732.723 366.249,726.733 373.017,725.261L478.923,702.232L501.952,596.327C503.423,589.558 509.413,584.731 516.339,584.731C523.266,584.731 529.255,589.558 530.727,596.327Z" style="fill:rgb(254,254,254);"/>
                </g>
                <g id="sparkle2" serif:id="sparkle" transform="matrix(0.20375,0,0,0.20375,81.3551,148.324)">
                    <path d="M516.339,599.455L541.379,714.609L656.533,739.649L541.379,764.689L516.339,879.843L491.299,764.689L376.145,739.649L491.299,714.609L516.339,599.455Z" style="fill:rgb(100,100,100);"/>
                </g>
            </g>
        </g>
    </g>
</svg>
