<?xml version="1.0" encoding="UTF-8" standalone="no"?>
<!DOCTYPE svg PUBLIC "-//W3C//DTD SVG 1.1//EN" "http://www.w3.org/Graphics/SVG/1.1/DTD/svg11.dtd">
<svg width="100%" height="100%" viewBox="0 0 140 140" version="1.1" xmlns="http://www.w3.org/2000/svg" xmlns:xlink="http://www.w3.org/1999/xlink" xml:space="preserve" xmlns:serif="http://www.serif.com/" style="fill-rule:evenodd;clip-rule:evenodd;stroke-linejoin:round;stroke-miterlimit:2;">
    <g transform="matrix(1,0,0,1,-69,-212)">
        <g transform="matrix(1,0,0,1,0,19.4293)">
            <g id="sparkle-day">
                <g id="sparkle" transform="matrix(0.409952,0,0,0.409952,-72.4153,-40.4959)">
                    <path d="M541.869,585.134L588.221,667.767L670.854,714.119C680.088,719.299 685.805,729.061 685.805,739.649C685.805,750.236 680.088,759.999 670.854,765.178L588.221,811.531L541.869,894.164C536.689,903.397 526.927,909.115 516.339,909.115C505.752,909.115 495.99,903.397 490.81,894.164L444.457,811.531L361.825,765.178C352.591,759.999 346.874,750.236 346.874,739.649C346.874,729.061 352.591,719.299 361.825,714.119L444.457,667.767L490.81,585.134C495.99,575.901 505.752,570.183 516.339,570.183C526.927,570.183 536.689,575.901 541.869,585.134Z" style="fill:rgb(114,114,114);"/>
                </g>
                <g id="sparkle1" serif:id="sparkle" transform="matrix(0.409952,0,0,0.409952,-72.4153,-40.4959)">
                    <path d="M526.977,593.488L575.679,680.31L662.5,729.012C666.348,731.17 668.73,735.238 668.73,739.649C668.73,744.06 666.348,748.128 662.5,750.286L575.679,798.988L526.977,885.81C524.818,889.657 520.751,892.039 516.339,892.039C511.928,892.039 507.86,889.657 505.702,885.81L457,798.988L370.178,750.286C366.331,748.128 363.949,744.06 363.949,739.649C363.949,735.238 366.331,731.17 370.178,729.012L457,680.31L505.702,593.488C507.86,589.641 511.928,587.259 516.339,587.259C520.751,587.259 524.818,589.641 526.977,593.488Z" style="fill:rgb(254,254,254);"/>
                </g>
                <g id="sparkle2" serif:id="sparkle" transform="matrix(0.409952,0,0,0.409952,-72.4153,-40.4959)">
                    <path d="M516.339,599.455L566.72,689.268L656.533,739.649L566.72,790.029L516.339,879.843L465.959,790.029L376.145,739.649L465.959,689.268L516.339,599.455Z" style="fill:rgb(150,150,150);"/>
                </g>
                <g transform="matrix(0.876405,0,0,0.778565,79.031,16.9057)">
                    <path d="M35.091,335.906C35.453,334.335 35.865,332.779 36.325,331.237C37.958,325.917 39.54,320.655 41.071,315.452C42.602,310.249 44.185,305.017 45.818,299.755C46.532,297.592 47.31,295.502 48.152,293.485C48.994,291.468 49.849,289.437 50.717,287.391C50.972,286.747 51.278,286.148 51.636,285.593C51.993,285.037 52.375,284.526 52.784,284.058C53.549,283.123 54.366,282.67 55.233,282.699C56.101,282.728 56.969,283.094 57.836,283.795C58.653,284.438 59.265,285.213 59.673,286.119C60.082,287.025 60.337,288.063 60.439,289.232C60.694,292.389 60.987,295.561 61.319,298.747C61.651,301.933 61.995,305.104 62.353,308.261C62.608,310.483 62.863,312.661 63.118,314.794C63.373,316.928 63.628,319.077 63.884,321.24C63.986,321.532 64.062,321.839 64.113,322.161C64.164,322.482 64.266,322.877 64.42,323.344C64.828,322.701 65.172,322.146 65.453,321.678C65.734,321.211 66.053,320.743 66.41,320.275C69.319,315.598 72.24,310.936 75.175,306.288C78.109,301.641 81.057,297.037 84.017,292.477C85.343,290.431 86.721,288.472 88.15,286.601L89.869,284.351L92.288,289.205L100.778,294.566C100.075,297.047 99.362,299.522 98.638,301.991C97.515,305.821 96.418,309.694 95.346,313.611C93.866,319.164 92.526,324.733 91.327,330.316C90.128,335.899 89.069,341.555 88.15,347.285C88.048,347.928 87.997,348.571 87.997,349.214C87.997,349.81 87.975,350.406 87.931,351.003L85.713,355.455C85.408,355.66 85.072,355.83 84.706,355.966C83.838,356.258 82.958,356.2 82.065,355.791C81.171,355.381 80.444,354.651 79.883,353.598C79.423,352.78 79.054,351.918 78.773,351.011C78.492,350.105 78.275,349.155 78.122,348.161C77.561,343.601 77.293,339.071 77.318,334.569C77.344,330.068 77.867,325.595 78.888,321.152C78.99,320.801 79.066,320.436 79.117,320.056C79.168,319.676 79.245,319.164 79.347,318.521C78.939,319.048 78.632,319.471 78.428,319.793C78.224,320.114 78.02,320.421 77.816,320.714C76.642,322.526 75.468,324.353 74.295,326.194C73.121,328.036 71.87,329.892 70.544,331.763C69.982,332.581 69.344,333.385 68.63,334.174C67.915,334.964 67.175,335.68 66.41,336.323C64.726,337.668 62.978,338.121 61.166,337.682C59.354,337.244 57.938,336.001 56.918,333.955C56.356,332.786 55.871,331.529 55.463,330.184C55.055,328.84 54.672,327.495 54.315,326.151C54.06,325.157 53.881,324.134 53.779,323.081C53.677,322.029 53.575,321.006 53.473,320.012C53.32,319.077 53.192,318.112 53.09,317.118C52.988,316.124 52.809,315.131 52.554,314.137C52.452,314.546 52.35,314.926 52.248,315.277C52.146,315.628 52.069,315.949 52.018,316.241C51.1,319.749 50.194,323.242 49.301,326.721C48.408,330.199 47.527,333.692 46.66,337.2C46.176,338.912 45.645,340.58 45.067,342.205L35.091,335.906Z" style="fill:rgb(45,45,45);"/>
                </g>
                <g transform="matrix(0.876405,0,0,0.81058,77.8143,6.30807)">
                    <path d="M37.154,336.122C37.116,335.125 37.171,334.081 37.32,332.991C37.576,332.055 37.856,331.134 38.163,330.228C38.469,329.322 38.826,328.431 39.234,327.554C39.796,326.384 40.523,325.639 41.416,325.318C42.309,324.996 43.189,325.069 44.057,325.537C45.027,325.946 45.754,326.633 46.239,327.598C46.723,328.562 46.838,329.658 46.583,330.886C46.481,331.237 46.379,331.704 46.277,332.289C46.175,333.283 46.213,333.999 46.392,334.438C46.57,334.876 47.042,335.329 47.808,335.797C49.135,336.615 50.487,337.185 51.865,337.507C53.243,337.828 54.672,337.785 56.152,337.375C60.388,336.206 64.381,334.496 68.132,332.245C71.883,329.994 75.366,327.115 78.581,323.608C80.163,321.971 80.84,320.772 80.61,320.012C80.38,319.252 79.372,318.58 77.586,317.995C76.004,317.644 74.409,317.279 72.802,316.899C71.194,316.519 69.625,316.154 68.094,315.803C66.461,315.452 64.841,315.145 63.233,314.882C61.625,314.619 60.056,314.224 58.525,313.698C56.433,312.997 54.698,311.959 53.32,310.585C51.942,309.211 50.934,307.633 50.296,305.85C49.658,304.067 49.403,302.123 49.53,300.018C49.658,297.914 50.232,295.721 51.253,293.441C52.273,291.22 53.498,289.232 54.927,287.478C56.356,285.724 57.913,284.146 59.597,282.743C62.914,279.82 66.384,277.554 70.008,275.947C73.631,274.339 77.561,273.681 81.797,273.974C83.05,274.122 84.249,274.428 85.393,274.891L92.378,288.354C92.178,289.179 91.892,289.998 91.519,290.811C89.579,294.903 86.645,297.709 82.715,299.229C80.878,299.931 79.423,299.492 78.352,297.914C77.79,297.037 77.586,296.189 77.739,295.371C77.892,294.552 78.173,293.734 78.581,292.915C78.888,292.272 79.207,291.658 79.538,291.074C79.87,290.489 80.24,289.758 80.648,288.881C76.566,289.349 72.993,290.635 69.931,292.74C66.869,294.844 64.088,297.621 61.587,301.071C62.455,301.714 63.297,302.123 64.113,302.298L66.563,302.824C68.706,303.292 70.812,303.731 72.878,304.14C74.945,304.549 77.025,305.046 79.117,305.631C81.72,306.449 84.221,307.618 86.619,309.138C89.273,310.892 91.059,313.231 91.978,316.154C92.896,319.077 92.845,322.234 91.825,325.624C91.365,326.911 90.83,328.197 90.217,329.483C89.605,330.769 88.941,331.968 88.227,333.078C84.859,337.638 81.133,341.511 77.05,344.698C72.968,347.884 68.451,350.237 63.501,351.757C59.673,353.043 56.024,353.218 52.554,352.283C52.326,352.222 52.099,352.156 51.872,352.087L46.544,341.817L37.154,336.122Z" style="fill:rgb(45,45,45);"/>
                </g>
                <g transform="matrix(0.769872,0,0,0.62532,79.4982,60.6343)">
                    <path d="M42.111,350.209C42.558,349.663 43.13,349.185 43.827,348.775C44.644,348.483 45.256,347.898 45.665,347.021C46.379,345.326 47.081,343.631 47.77,341.935C48.459,340.24 49.16,338.486 49.875,336.674C49.467,336.674 49.148,336.688 48.918,336.718C48.688,336.747 48.446,336.761 48.191,336.761C47.119,336.82 46.06,336.893 45.014,336.981C43.968,337.068 42.934,337.054 41.914,336.937C40.229,336.82 39.158,335.914 38.698,334.218C38.086,332.406 38.341,330.798 39.464,329.395C39.872,328.928 40.331,328.504 40.842,328.124C41.352,327.744 41.888,327.437 42.449,327.203C44.236,326.501 46.009,325.829 47.77,325.186C49.53,324.543 51.304,323.9 53.09,323.257C53.6,323.081 54.021,322.877 54.353,322.643C54.685,322.409 54.953,321.971 55.157,321.328C56.688,316.475 58.244,311.652 59.826,306.858C61.409,302.064 62.965,297.3 64.496,292.564C64.547,292.447 64.56,292.345 64.534,292.257C64.509,292.17 64.496,291.98 64.496,291.687C63.782,291.746 63.131,291.804 62.544,291.863C61.957,291.921 61.383,291.951 60.822,291.951L57.339,291.951C56.19,291.951 55.029,291.921 53.855,291.863C52.495,291.717 51.559,290.961 51.049,289.597L54.244,282.584C54.975,282.09 55.713,281.675 56.458,281.34C58.959,280.171 61.485,279.206 64.037,278.446C66.588,277.686 69.166,276.984 71.768,276.341C76.464,275.114 81.171,274.412 85.892,274.237C89.667,274.096 93.466,274.162 97.29,274.433L103.486,288.031C101.415,288.221 99.314,288.446 97.183,288.706C93.917,288.998 90.664,289.291 87.423,289.583C84.182,289.875 80.903,290.197 77.586,290.547L74.218,305.28C73.095,310.191 71.947,315.189 70.773,320.275C72.1,320.334 73.389,320.363 74.639,320.363C75.889,320.363 77.178,320.421 78.505,320.538C79.934,320.655 81.325,320.801 82.677,320.977C84.029,321.152 85.394,321.386 86.772,321.678C87.691,321.854 88.559,322.161 89.375,322.599C90.192,323.038 90.957,323.666 91.672,324.484C92.233,325.244 92.629,326.048 92.858,326.896C93.088,327.744 93.075,328.664 92.82,329.658C92.565,330.769 92.054,331.646 91.289,332.289C90.523,332.932 89.63,333.137 88.61,332.903C86.67,332.435 84.782,332.318 82.945,332.552C81.108,332.786 79.245,332.932 77.357,332.991C75.826,333.049 74.282,333.195 72.725,333.429C71.169,333.663 69.599,333.809 68.017,333.868C67.201,333.926 66.563,334.16 66.104,334.569C65.644,334.978 65.236,335.621 64.879,336.498C63.603,339.772 62.187,342.885 60.63,345.838C59.074,348.79 57.275,351.64 55.233,354.388C54.57,355.148 53.868,355.893 53.128,356.624C52.637,357.108 52.13,357.561 51.605,357.981L50.797,356.207L42.111,350.209Z" style="fill:rgb(45,45,45);"/>
                </g>
                <g transform="matrix(0.876405,0,0,0.767173,87.566,18.8101)">
                    <path d="M25.443,338.469C25.247,336.919 25.105,335.326 25.019,333.692C24.917,331.237 25.006,328.781 25.287,326.326C25.567,323.871 25.912,321.386 26.32,318.872C27.961,309.616 30.297,300.778 33.326,292.357L35.417,291.017L42.696,276.193C43.457,275.895 44.174,275.842 44.845,276.034C45.56,276.239 46.16,276.634 46.644,277.218C47.129,277.803 47.486,278.534 47.716,279.411C47.946,280.287 47.984,281.252 47.831,282.304C47.729,282.772 47.627,283.211 47.525,283.62C47.423,284.029 47.321,284.467 47.219,284.935C45.841,290.372 44.488,295.765 43.161,301.114C41.834,306.464 40.559,311.886 39.334,317.381C38.823,319.428 38.441,321.518 38.186,323.651C37.93,325.785 37.675,327.963 37.42,330.184C37.522,330.184 37.611,330.199 37.688,330.228C37.764,330.258 37.854,330.272 37.956,330.272C38.466,329.571 38.925,328.869 39.334,328.168L40.559,326.063C42.294,323.257 44.016,320.451 45.726,317.644C47.435,314.838 49.158,312.032 50.893,309.226C51.556,308.174 52.182,307.078 52.768,305.938C53.355,304.798 53.955,303.643 54.567,302.474C55.333,301.304 56.239,300.457 57.285,299.931C58.331,299.404 59.492,299.287 60.768,299.58C63.371,300.457 64.927,302.415 65.438,305.455C65.54,306.098 65.603,306.785 65.629,307.516C65.655,308.247 65.642,308.934 65.591,309.577C65.438,311.272 65.272,312.924 65.093,314.531C64.915,316.139 64.749,317.761 64.596,319.398C64.494,321.503 64.417,323.622 64.366,325.756C64.315,327.89 64.468,330.009 64.825,332.114C65.387,335.329 66.28,337.302 67.505,338.033C68.729,338.764 70.49,338.223 72.787,336.411C75.083,334.54 76.818,332.026 77.992,328.869C79.727,324.251 80.863,319.603 81.399,314.926C81.934,310.249 81.769,305.426 80.901,300.457C80.34,297.767 79.6,295.195 78.681,292.74C77.762,290.284 76.716,287.917 75.542,285.637C73.858,282.655 73.782,279.849 75.313,277.218C75.392,277.069 75.475,276.924 75.56,276.784L82.549,291.017L95.791,299.503C95.831,299.79 95.869,300.079 95.905,300.369C96.16,302.649 96.237,304.929 96.135,307.209C96.033,309.489 95.777,311.74 95.369,313.961C94.297,321.269 92.409,328.138 89.704,334.569C88.295,337.964 86.586,340.962 84.576,343.562L82.549,344.86L81.514,346.968C80.044,348.371 78.436,349.617 76.691,350.705C74.19,352.225 71.766,353.058 69.418,353.204C67.071,353.35 64.889,352.897 62.873,351.845C60.857,350.792 59.058,349.214 57.476,347.109C55.894,345.005 54.618,342.461 53.649,339.48C53.138,338.018 52.743,336.498 52.462,334.92C52.182,333.341 51.837,331.763 51.429,330.184C51.174,330.477 50.906,330.842 50.625,331.281C50.344,331.719 50.102,332.114 49.898,332.464C48.724,334.452 47.576,336.411 46.453,338.34C45.33,340.269 44.182,342.169 43.008,344.04C42.447,344.858 41.885,345.604 41.324,346.276C40.763,346.948 40.125,347.577 39.41,348.161C38.835,348.686 38.256,349.119 37.676,349.461L35.417,344.86L25.443,338.469Z" style="fill:rgb(45,45,45);"/>
                </g>
                <g transform="matrix(0.876405,0,0,0.754666,75.606,27.1495)">
                    <path d="M96.558,285.026C94.561,285.4 92.557,285.779 90.546,286.163C88.76,286.514 86.948,286.85 85.111,287.171C83.274,287.493 81.411,287.829 79.523,288.18C78.145,293.207 76.754,298.177 75.351,303.088C73.948,307.998 72.582,312.938 71.256,317.908C70.082,321.941 68.959,325.99 67.887,330.053C66.816,334.116 65.922,338.223 65.208,342.374C65.055,343.251 64.966,344.098 64.94,344.917C64.915,345.735 65.004,346.583 65.208,347.46C65.463,348.395 65.489,349.287 65.285,350.135C65.08,350.982 64.71,351.684 64.175,352.239C63.639,352.795 62.975,353.189 62.184,353.423C61.393,353.657 60.589,353.628 59.773,353.335C58.548,352.868 57.591,352.108 56.902,351.055C56.213,350.003 55.767,348.775 55.563,347.372C55.307,346.028 55.154,344.668 55.103,343.295C55.052,341.921 55.052,340.561 55.103,339.217C55.665,330.506 56.787,322.014 58.472,313.742C60.156,305.47 62.682,297.358 66.05,289.407C66.101,289.291 66.152,289.159 66.203,289.013C66.254,288.867 66.305,288.647 66.356,288.355C65.438,288.238 64.545,288.121 63.677,288.004C62.809,287.887 61.942,287.712 61.074,287.478C59.645,287.127 58.255,286.733 56.902,286.294C55.55,285.856 54.159,285.374 52.73,284.847C52.271,284.614 51.799,284.351 51.314,284.058C50.829,283.766 50.383,283.415 49.974,283.006C49.963,282.995 49.952,282.984 49.941,282.974L54.175,274.207C54.728,274.168 55.293,274.149 55.869,274.149C58.165,274.091 60.411,274.105 62.605,274.193C64.8,274.281 67.02,274.295 69.265,274.237C71.766,274.12 74.267,273.944 76.767,273.711L84.269,273.009C85.647,272.892 87.038,272.761 88.441,272.614C89.042,272.552 89.64,272.497 90.236,272.451L96.196,284.79L96.558,285.026Z" style="fill:rgb(45,45,45);"/>
                </g>
            </g>
        </g>
    </g>
</svg>
