<?xml version="1.0" encoding="UTF-8" standalone="no"?>
<!DOCTYPE svg PUBLIC "-//W3C//DTD SVG 1.1//EN" "http://www.w3.org/Graphics/SVG/1.1/DTD/svg11.dtd">
<svg width="100%" height="100%" viewBox="0 0 55 55" version="1.1" xmlns="http://www.w3.org/2000/svg" xmlns:xlink="http://www.w3.org/1999/xlink" xml:space="preserve" xmlns:serif="http://www.serif.com/" style="fill-rule:evenodd;clip-rule:evenodd;stroke-linejoin:round;stroke-miterlimit:2;">
    <g transform="matrix(1,0,0,1,-1042,-293)">
        <g transform="matrix(1,0,0,1,0,19.4293)">
            <g id="sparkle-r">
                <g id="sparkle" transform="matrix(0.13576,0,0,0.13576,999.688,200.371)">
                    <path d="M572.963,583.14L595.306,660.682L672.849,683.025C698.083,690.296 715.461,713.388 715.461,739.649C715.461,765.91 698.083,789.002 672.849,796.273L595.306,818.616L572.963,896.158C565.692,921.393 542.6,938.77 516.339,938.77C490.078,938.77 466.987,921.393 459.716,896.158L437.372,818.616L359.83,796.273C334.595,789.002 317.218,765.91 317.218,739.649C317.218,713.388 334.595,690.296 359.83,683.025L437.372,660.682L459.716,583.14C466.987,557.905 490.078,540.528 516.339,540.528C542.6,540.528 565.692,557.905 572.963,583.14Z" style="fill:rgb(45,45,45);"/>
                </g>
                <g id="sparkle1" serif:id="sparkle" transform="matrix(0.13576,0,0,0.13576,999.688,200.371)">
                    <path d="M537.573,593.337L565.552,690.437L662.652,718.415C672.114,721.142 678.631,729.801 678.631,739.649C678.631,749.497 672.114,758.156 662.652,760.883L565.552,788.861L537.573,885.961C534.847,895.424 526.187,901.941 516.339,901.941C506.491,901.941 497.832,895.424 495.105,885.961L467.127,788.861L370.027,760.883C360.564,758.156 354.048,749.497 354.048,739.649C354.048,729.801 360.564,721.142 370.027,718.415L467.127,690.437L495.105,593.337C497.832,583.874 506.491,577.357 516.339,577.357C526.187,577.357 534.847,583.874 537.573,593.337Z" style="fill:white;"/>
                </g>
                <g id="sparkle2" serif:id="sparkle" transform="matrix(0.13576,0,0,0.13576,999.688,200.371)">
                    <path d="M516.339,599.455L547.699,708.289L656.533,739.649L547.699,771.008L516.339,879.843L484.98,771.008L376.145,739.649L484.98,708.289L516.339,599.455Z" style="fill:rgb(100,100,100);"/>
                </g>
            </g>
        </g>
    </g>
</svg>
