<?xml version="1.0" encoding="UTF-8" standalone="no"?>
<!DOCTYPE svg PUBLIC "-//W3C//DTD SVG 1.1//EN" "http://www.w3.org/Graphics/SVG/1.1/DTD/svg11.dtd">
<svg width="100%" height="100%" viewBox="0 0 188 119" version="1.1" xmlns="http://www.w3.org/2000/svg" xmlns:xlink="http://www.w3.org/1999/xlink" xml:space="preserve" xmlns:serif="http://www.serif.com/" style="fill-rule:evenodd;clip-rule:evenodd;stroke-linejoin:round;stroke-miterlimit:2;">
    <g transform="matrix(1,0,0,1,-1046,-229)">
        <g transform="matrix(1,0,0,1,0,19.4293)">
            <g id="time-planet">
                <g transform="matrix(0.937066,0,0,0.937066,71.7341,-8.62751)">
                    <path d="M1086.39,329.384C1075.77,327.509 1067,325.092 1060.76,322.441C1054.04,319.583 1049.35,316.072 1046.45,312.819C1041.85,307.655 1040.07,302.057 1040.07,296.598C1040.07,291.139 1041.85,285.541 1046.45,280.377C1049.35,277.124 1054.04,273.613 1060.76,270.755C1066.86,268.164 1075.37,265.796 1085.66,263.941C1096.65,245.471 1116.81,233.086 1139.84,233.086C1162.86,233.086 1183.01,245.463 1194,263.924C1204.33,265.782 1212.88,268.156 1218.99,270.755C1225.71,273.613 1230.41,277.124 1233.31,280.377C1237.91,285.541 1239.68,291.139 1239.68,296.598C1239.68,302.057 1237.91,307.655 1233.31,312.819C1230.41,316.072 1225.71,319.583 1218.99,322.441C1212.74,325.1 1203.93,327.523 1193.27,329.4C1182.14,347.203 1162.36,359.051 1139.84,359.051C1117.3,359.051 1097.52,347.196 1086.39,329.384Z" style="fill:rgb(48,48,48);"/>
                </g>
                <g transform="matrix(0.937066,0,0,0.937066,71.7341,-8.62751)">
                    <path d="M1091.07,322.596C1079.61,320.773 1070.18,318.328 1063.68,315.566C1058.24,313.249 1054.37,310.486 1052.02,307.849C1048.83,304.261 1047.54,300.391 1047.54,296.598C1047.54,292.805 1048.83,288.935 1052.02,285.347C1054.37,282.71 1058.24,279.947 1063.68,277.63C1070.07,274.917 1079.27,272.51 1090.45,270.699C1099.67,252.804 1118.34,240.556 1139.84,240.556C1161.33,240.556 1179.99,252.797 1189.21,270.684C1200.43,272.498 1209.67,274.91 1216.07,277.63C1221.52,279.947 1225.38,282.71 1227.73,285.347C1230.92,288.935 1232.21,292.805 1232.21,296.598C1232.21,300.391 1230.92,304.261 1227.73,307.849C1225.38,310.486 1221.52,313.249 1216.07,315.566C1209.56,318.335 1200.1,320.785 1188.59,322.61C1179.18,339.866 1160.86,351.581 1139.84,351.581C1118.8,351.581 1100.49,339.859 1091.07,322.596ZM1080.75,296.598C1081.89,296.907 1083.09,297.205 1084.34,297.494C1084.33,297.02 1084.32,296.545 1084.32,296.068C1084.32,295.948 1084.32,295.827 1084.32,295.706C1083.08,295.993 1081.89,296.291 1080.75,296.598ZM1199,296.598C1197.84,296.284 1196.62,295.98 1195.35,295.687C1195.35,295.814 1195.35,295.941 1195.35,296.068C1195.35,296.551 1195.34,297.033 1195.33,297.513C1196.61,297.219 1197.83,296.914 1199,296.598Z" style="fill:white;"/>
                </g>
                <g transform="matrix(0.937066,0,0,0.937066,71.7341,-8.62751)">
                    <path d="M1094.57,317.734C1082.43,315.956 1072.47,313.503 1065.77,310.656C1061.23,308.725 1057.97,306.497 1056.01,304.299C1053.81,301.836 1052.87,299.202 1052.87,296.598C1052.87,293.994 1053.81,291.36 1056.01,288.897C1057.97,286.699 1061.23,284.471 1065.77,282.54C1072.37,279.735 1082.14,277.311 1094.04,275.54C1101.89,258.07 1119.45,245.892 1139.84,245.892C1160.21,245.892 1177.77,258.064 1185.62,275.527C1197.56,277.3 1207.36,279.728 1213.98,282.54C1218.52,284.471 1221.79,286.699 1223.74,288.897C1225.94,291.36 1226.88,293.994 1226.88,296.598C1226.88,299.202 1225.94,301.836 1223.74,304.299C1221.79,306.497 1218.52,308.725 1213.98,310.656C1207.27,313.51 1197.27,315.968 1185.09,317.746C1177,334.599 1159.77,346.245 1139.84,346.245C1119.9,346.245 1102.66,334.593 1094.57,317.734ZM1090.14,289.076C1082.19,290.506 1075.58,292.284 1070.78,294.325C1069.35,294.936 1067.83,295.887 1066.79,296.598C1067.83,297.309 1069.35,298.26 1070.78,298.871C1075.62,300.926 1082.29,302.715 1090.31,304.15C1089.88,301.519 1089.66,298.819 1089.66,296.068C1089.66,293.696 1089.82,291.361 1090.14,289.076ZM1189.36,304.165C1197.42,302.727 1204.12,300.933 1208.97,298.871C1210.4,298.26 1211.92,297.309 1212.96,296.598C1211.92,295.887 1210.4,294.936 1208.97,294.325C1204.15,292.277 1197.51,290.493 1189.53,289.061C1189.85,291.351 1190.01,293.691 1190.01,296.068C1190.01,298.824 1189.79,301.529 1189.36,304.165Z" style="fill:rgb(100,100,100);"/>
                </g>
            </g>
        </g>
    </g>
</svg>
